<svg width="191" height="130" viewBox="0 0 191 130" fill="none" xmlns="http://www.w3.org/2000/svg">
<path d="M73.8195 37L72 38.7776L87.1805 54L89 52.2224L73.8195 37Z" fill="white"/>
<path d="M117.18 37L102 52.2237L103.82 54L119 38.7762L117.18 37Z" fill="white"/>
<path fill-rule="evenodd" clip-rule="evenodd" d="M92.6504 1.36981C94.5314 -0.456605 97.4691 -0.456605 99.3491 1.36981L129 30.1757L125.197 34.4935H112.203L100.039 21.9708L99.941 61H92.0638V22.013L79.8014 34.4935H66.8035L63 30.1757L92.6504 1.36981ZM113.278 31.9178H124.042L125.457 30.3162L97.5669 3.22432C96.6871 2.36732 95.3086 2.36732 94.4288 3.22432L66.5381 30.3162L67.9534 31.9225H78.7214L90.1318 20.1726C90.8767 19.4045 91.9987 19.1704 92.9903 19.5731C93.9819 19.9758 94.6198 20.9359 94.6198 22.0083V58.4242H97.3806V22.0083C97.3806 20.9359 98.0224 19.9805 99.0095 19.5731C100.001 19.1656 101.123 19.3998 101.868 20.1678L113.278 31.9178Z" fill="white"/>
<path d="M32.1399 128.383H32.0605L30.2609 123H29V130H29.8601V124.613H29.9395L31.7349 130H33V123H32.1399V128.383Z" fill="white"/>
<path d="M35 130H39V129.056H36.0228V126.92H38.8912V125.981H36.0228V123.944H39V123H35V130Z" fill="white"/>
<path d="M44.0278 127.241C44.0278 127.528 44.0196 127.781 44.0072 128.016C43.9949 128.246 43.9495 128.442 43.8795 128.602C43.8095 128.762 43.7065 128.889 43.5706 128.973C43.4305 129.057 43.241 129.1 42.998 129.1C42.755 129.1 42.5654 129.057 42.4253 128.973C42.2853 128.889 42.1823 128.762 42.1122 128.602C42.0422 128.442 42.001 128.246 41.9887 128.016C41.9764 127.786 41.9681 127.528 41.9681 127.241V123H41V127.035C41 127.528 41.0247 127.964 41.0742 128.33C41.1236 128.7 41.2183 129.011 41.3625 129.254C41.5067 129.502 41.7086 129.686 41.9722 129.813C42.2359 129.939 42.5778 130 42.998 130C43.4182 130 43.7642 129.939 44.0237 129.813C44.2873 129.686 44.4893 129.502 44.6376 129.254C44.7817 129.011 44.8764 128.7 44.9259 128.33C44.9754 127.959 45 127.523 45 127.035V123H44.032V127.241H44.0278Z" fill="white"/>
<path fill-rule="evenodd" clip-rule="evenodd" d="M51.9161 125.1C51.9161 125.635 51.8042 126.073 51.5884 126.422C51.3726 126.765 51.0569 126.98 50.6453 127.061L52 130H50.957L49.7142 127.161H48.931V130H48V123H50.1938C50.7533 123 51.1808 123.187 51.4765 123.559C51.7682 123.931 51.9161 124.446 51.9161 125.1ZM48.9351 123.922V126.269V126.273H50.0619C50.6453 126.273 50.9371 125.954 50.9371 125.314V124.881C50.9371 124.241 50.6453 123.922 50.0619 123.922H48.9351Z" fill="white"/>
<path fill-rule="evenodd" clip-rule="evenodd" d="M57.6186 123.235C57.9349 123.392 58.1954 123.623 58.3999 123.918C58.6046 124.213 58.7581 124.582 58.8512 125.02C58.9489 125.458 59 125.952 59 126.5C59 127.059 58.9489 127.551 58.8512 127.986C58.7535 128.419 58.6046 128.783 58.3999 129.082C58.1954 129.378 57.9349 129.604 57.6186 129.765C57.3023 129.922 56.9302 130 56.5024 130C56.0698 130 55.6977 129.922 55.3814 129.765C55.0698 129.609 54.8047 129.378 54.6001 129.082C54.4 128.783 54.2466 128.419 54.1489 127.986C54.0512 127.551 54 127.059 54 126.5C54 125.952 54.0512 125.458 54.1489 125.02C54.2466 124.582 54.3954 124.213 54.6001 123.918C54.8047 123.623 55.0651 123.392 55.3814 123.235C55.6977 123.079 56.0698 123 56.5024 123C56.9302 123 57.3023 123.079 57.6186 123.235ZM57.5349 128.553C57.7349 128.188 57.8372 127.685 57.8372 127.059V125.919C57.8372 125.297 57.7395 124.799 57.5349 124.434C57.3302 124.07 56.986 123.886 56.4976 123.886C56.0093 123.886 55.6605 124.07 55.4604 124.434C55.2559 124.803 55.1582 125.297 55.1582 125.919V127.067C55.1582 127.69 55.2559 128.188 55.4604 128.553C55.6651 128.917 56.0093 129.101 56.4976 129.101C56.986 129.101 57.3349 128.917 57.5349 128.553Z" fill="white"/>
<path d="M65 130H65.9957V126.92H68.7204V125.981H65.9957V123.944H69V123H65V130Z" fill="white"/>
<path d="M71 123.854H72.4919V129.146H71V130H75V129.146H73.5125V123.854H75V123H71V123.854Z" fill="white"/>
<path d="M77 123.944H78.9897V130H80.006V123.944H82V123H77V123.944Z" fill="white"/>
<path d="M87.1366 128.388H87.0574L85.2596 123H84V130H84.8593V124.618H84.9385L86.7362 130H88V123H87.1366V128.388Z" fill="white"/>
<path d="M90 130H94V129.056H91.023V126.92H93.8874V125.981H91.023V123.944H94V123H90V130Z" fill="white"/>
<path d="M99.2338 126.034L98.5047 125.91C98.0797 125.841 97.785 125.721 97.6169 125.564C97.4488 125.403 97.3648 125.186 97.3648 124.905C97.3648 124.573 97.4724 124.319 97.6868 124.149C97.8974 123.978 98.2053 123.891 98.6171 123.891C98.9949 123.891 99.3179 123.959 99.5748 124.098C99.8364 124.236 100.056 124.42 100.247 124.646L100.935 123.969C100.701 123.66 100.388 123.425 100.005 123.254C99.6211 123.084 99.1592 123 98.6171 123C97.8833 123 97.3081 123.166 96.8831 123.498C96.4675 123.83 96.2569 124.314 96.2569 124.956C96.2569 125.182 96.29 125.394 96.3504 125.601C96.4108 125.804 96.5138 125.989 96.6498 126.154C96.7849 126.321 96.9671 126.459 97.1919 126.579C97.4158 126.699 97.6915 126.786 98.0136 126.837L98.7616 126.952C99.1725 127.022 99.4671 127.137 99.6352 127.298C99.8034 127.459 99.8921 127.685 99.8921 127.976C99.8921 128.34 99.776 128.621 99.5417 128.815C99.3085 129.009 98.977 129.11 98.5425 129.11C98.1732 129.11 97.836 129.036 97.5423 128.889C97.2476 128.741 96.9671 128.515 96.7102 128.207L96 128.875C96.2616 129.216 96.5978 129.489 97.0002 129.691C97.4063 129.894 97.9069 130 98.5047 130C98.9061 130 99.2612 129.95 99.5701 129.852C99.8827 129.751 100.145 129.613 100.355 129.433C100.566 129.254 100.729 129.032 100.837 128.774C100.944 128.515 101 128.234 101 127.92C101 127.445 100.86 127.035 100.58 126.704C100.299 126.366 99.8506 126.145 99.2338 126.034Z" fill="white"/>
<path d="M105.234 126.034L104.504 125.91C104.079 125.841 103.784 125.721 103.616 125.564C103.448 125.403 103.364 125.186 103.364 124.905C103.364 124.573 103.472 124.319 103.687 124.149C103.897 123.978 104.206 123.891 104.617 123.891C104.995 123.891 105.313 123.959 105.575 124.098C105.836 124.236 106.056 124.42 106.248 124.646L106.935 123.969C106.701 123.66 106.388 123.425 106.005 123.254C105.622 123.084 105.159 123 104.617 123C103.883 123 103.308 123.166 102.883 123.498C102.467 123.83 102.257 124.314 102.257 124.956C102.257 125.182 102.289 125.394 102.35 125.601C102.411 125.804 102.514 125.989 102.649 126.154C102.785 126.321 102.967 126.459 103.191 126.579C103.411 126.699 103.687 126.786 104.014 126.837L104.761 126.952C105.173 127.022 105.468 127.137 105.636 127.298C105.804 127.459 105.893 127.685 105.893 127.976C105.893 128.34 105.776 128.621 105.542 128.815C105.308 129.009 104.977 129.11 104.542 129.11C104.168 129.11 103.836 129.036 103.542 128.889C103.247 128.741 102.967 128.515 102.706 128.207L102 128.875C102.262 129.216 102.593 129.489 102.999 129.691C103.407 129.894 103.906 130 104.504 130C104.902 130 105.262 129.95 105.57 129.852C105.883 129.751 106.145 129.613 106.356 129.433C106.565 129.254 106.729 129.032 106.837 128.774C106.944 128.515 107 128.234 107 127.92C107 127.445 106.86 127.035 106.58 126.704C106.294 126.366 105.85 126.145 105.234 126.034Z" fill="white"/>
<path fill-rule="evenodd" clip-rule="evenodd" d="M113 123H115.243C115.815 123 116.253 123.182 116.551 123.559C116.849 123.931 117 124.446 117 125.1C117 125.754 116.849 126.269 116.551 126.641C116.248 127.013 115.811 127.2 115.239 127.2H113.96V130H113V123ZM115.092 126.278C115.688 126.278 115.987 125.954 115.987 125.31V124.881C115.987 124.241 115.688 123.922 115.092 123.922H113.96V126.278H115.092Z" fill="white"/>
<path d="M121.039 123H120V130H124V129.056H121.039V123Z" fill="white"/>
<path fill-rule="evenodd" clip-rule="evenodd" d="M126 130L127.818 123H129.183L131 130H129.941L129.466 128.125H127.488L127.017 130H126ZM128.445 124.136L127.679 127.204H129.285L128.517 124.136H128.445Z" fill="white"/>
<path d="M132 123.944H133.992V130H135.008V123.944H137V123H132V123.944Z" fill="white"/>
<path d="M139 130H140V126.92H142.724V125.981H140V123.944H143V123H139V130Z" fill="white"/>
<path fill-rule="evenodd" clip-rule="evenodd" d="M147.618 123.235C147.935 123.397 148.195 123.627 148.399 123.922C148.604 124.217 148.753 124.586 148.851 125.023C148.948 125.461 149 125.954 149 126.502C149 127.06 148.948 127.553 148.851 127.986C148.753 128.42 148.604 128.783 148.399 129.083C148.195 129.378 147.935 129.608 147.618 129.765C147.302 129.922 146.93 130 146.502 130C146.07 130 145.698 129.922 145.381 129.765C145.07 129.608 144.805 129.378 144.6 129.083C144.4 128.783 144.246 128.42 144.149 127.986C144.051 127.553 144 127.06 144 126.502C144 125.95 144.051 125.461 144.149 125.023C144.246 124.586 144.396 124.217 144.6 123.922C144.805 123.622 145.065 123.397 145.381 123.235C145.698 123.079 146.075 123 146.502 123C146.93 123 147.302 123.079 147.618 123.235ZM147.534 128.553C147.735 128.189 147.837 127.687 147.837 127.06V125.922C147.837 125.3 147.739 124.802 147.534 124.438C147.33 124.074 146.986 123.89 146.498 123.89C146.009 123.89 145.66 124.074 145.461 124.438C145.256 124.807 145.158 125.3 145.158 125.922V127.069C145.158 127.691 145.256 128.189 145.461 128.553C145.66 128.917 146.009 129.102 146.498 129.102C146.986 129.102 147.334 128.917 147.534 128.553Z" fill="white"/>
<path fill-rule="evenodd" clip-rule="evenodd" d="M155.916 125.1C155.916 125.635 155.809 126.073 155.589 126.422C155.369 126.765 155.057 126.984 154.645 127.061L156 130H154.957L153.714 127.161H152.931V130H152V123H154.194C154.754 123 155.181 123.187 155.477 123.559C155.768 123.931 155.916 124.446 155.916 125.1ZM152.931 123.922V126.269V126.273H154.058C154.641 126.273 154.933 125.954 154.933 125.314V124.881C154.933 124.241 154.641 123.922 154.058 123.922H152.931Z" fill="white"/>
<path d="M159.943 123L159.058 125.777H159L158.123 123H157V130H157.811V126.651L157.787 124.542H157.853L159 128.144L160.151 124.542H160.213L160.189 126.651V130H161V123H159.943Z" fill="white"/>
<path d="M20.4246 100.67C20.4246 101.383 20.1507 102.055 19.6485 102.557L15.6302 106.608C15.1278 107.115 14.4658 107.391 13.758 107.391H10.2375C9.52967 107.391 8.86302 107.115 8.36531 106.608L4.34703 102.557C3.84474 102.051 3.57078 101.383 3.57078 100.67V80H0V100.748C0 102.35 0.643834 103.92 1.76713 105.052L5.89498 109.213C7.03654 110.365 8.55252 111 10.1644 111H13.8356C15.4475 111 16.9635 110.365 18.105 109.213L22.2329 105.052C23.3562 103.92 24 102.35 24 100.748V80H20.4293V100.67H20.4246Z" fill="white"/>
<path d="M73.1093 81.7867C71.9686 80.6355 70.4537 80 68.8431 80H64.1569C62.5462 80 61.0314 80.6309 59.8907 81.7821L55.7658 85.9449C54.6251 87.0916 54 88.6249 54 90.2505V100.749C54 102.375 54.6296 103.904 55.7658 105.055L60.7348 110.07C61.3188 110.659 62.131 111 62.9569 111H68.8431C70.4537 111 71.9731 110.365 73.1093 109.214L77.2341 105.05C78.3566 103.918 79 102.348 79 100.745V94.2153H66.2239V97.8165H75.4318V100.671C75.4318 101.38 75.158 102.048 74.6607 102.55L70.6362 106.612C70.1434 107.109 69.4682 107.39 68.7746 107.39H64.2254C63.5318 107.39 62.852 107.109 62.3637 106.612L58.3392 102.55C57.8419 102.048 57.5681 101.38 57.5681 100.671V90.3103C57.5681 89.6104 57.851 88.9243 58.3392 88.4315L62.3637 84.37C62.8565 83.8727 63.5318 83.5918 64.2254 83.5918H68.7746C69.4682 83.5918 70.148 83.8773 70.6362 84.37L74.6607 88.4315C75.158 88.9335 75.4318 89.6012 75.4318 90.3103V90.8675H79V90.2413C79 88.6388 78.3566 87.0685 77.2341 85.9357L73.1093 81.7867Z" fill="white"/>
<path d="M158.985 81.7864C157.82 80.6354 156.273 80 154.628 80H139V111H142.644V83.6004H154.558C155.276 83.6004 155.951 83.8768 156.46 84.3786L160.569 88.4395C161.077 88.9414 161.356 89.6089 161.356 90.318V100.677C161.356 101.387 161.077 102.054 160.569 102.556L156.46 106.617C155.951 107.119 155.276 107.395 154.558 107.395H145.244V110.995H154.628C156.273 110.995 157.82 110.36 158.985 109.209L163.197 105.046C164.344 103.914 165 102.344 165 100.742V90.2397C165 88.6375 164.344 87.0674 163.197 85.9348L158.985 81.7864Z" fill="white"/>
<path d="M46.7899 81.7818C45.6116 80.6492 43.9783 80 42.3116 80H28V111H31.7455V83.6004H42.2397C42.9773 83.6004 43.6718 83.8768 44.1939 84.3785L46.4402 86.5379C46.9576 87.0306 47.2497 87.7166 47.2497 88.4164V91.0086C47.2497 91.7084 46.9576 92.3944 46.4402 92.8871L44.1939 95.0469C43.6718 95.5481 42.9773 95.8247 42.2397 95.8247H34.423V99.4253H42.3116C43.9783 99.4253 45.6116 98.7755 46.7899 97.6431L49.1416 95.3829C50.3391 94.2316 51 92.7029 51 91.0777V88.3428C51 86.7175 50.3391 85.1889 49.1416 84.0379L46.7899 81.7818Z" fill="white"/>
<path d="M102.021 98.7987L104.249 96.5385C105.384 95.3875 106.006 93.8586 106.006 92.2333V88.3474C106.006 86.7221 105.384 85.1935 104.249 84.0424L102.021 81.7818C100.904 80.6492 99.3565 80 97.7765 80H84V111H87.5496V83.6004H97.7087C98.4078 83.6004 99.0656 83.8768 99.5601 84.3786L101.69 86.5379C102.18 87.0306 102.457 87.7167 102.457 88.4165V92.1643C102.457 92.8734 102.184 93.5409 101.69 94.0428L99.5601 96.2025C99.0656 96.7037 98.4078 96.9803 97.7087 96.9803H90.0825V100.581H95.1892L102.538 110.852L102.615 110.958H107L99.4106 100.346C100.401 100.065 101.299 99.5357 102.021 98.7987Z" fill="white"/>
<path d="M191 80H168V111H191V107.399H171.923V83.6004H191V80Z" fill="white"/>
<path d="M188 93H175V97H188V93Z" fill="white"/>
<path fill-rule="evenodd" clip-rule="evenodd" d="M107.152 110.64L120.147 80H123.853L137 111H133.071L129.447 102.453H114.552L110.928 111H107L107.152 110.64ZM122.002 84.887L116.084 98.8473H127.921L122.002 84.887Z" fill="white"/>
</svg>
