<svg width="44" height="41" viewBox="0 0 44 41" fill="none" xmlns="http://www.w3.org/2000/svg">
<path d="M7.13087 25.4136L5.91602 26.6298L16.0522 37.0445L17.2671 35.8283L7.13087 25.4136Z" fill="white"/>
<path d="M36.8736 25.4135L26.7417 35.8325L27.9571 37.0482L38.0889 26.6291L36.8736 25.4135Z" fill="white"/>
<path fill-rule="evenodd" clip-rule="evenodd" d="M19.767 0.920693C21.0208 -0.306898 22.9792 -0.306898 24.2331 0.920693L44 20.282L41.4643 23.1842H32.8022L24.6924 14.7673L24.6272 41H19.3759V14.7956L11.201 23.1842H2.53565L0 20.282L19.767 0.920693ZM33.5191 21.453H40.6946L41.6382 20.3764L23.0444 2.16717C22.4578 1.59115 21.5391 1.59115 20.9525 2.16717L2.35874 20.3764L3.30225 21.4561H10.4809L18.0879 13.5586C18.5845 13.0424 19.3324 12.885 19.9935 13.1557C20.6546 13.4264 21.0798 14.0717 21.0798 14.7925V39.2688H22.9202V14.7925C22.9202 14.0717 23.3485 13.4295 24.0065 13.1557C24.6675 12.8819 25.4155 13.0392 25.9121 13.5555L33.5191 21.453Z" fill="white"/>
</svg>
