<svg width="6" height="9" viewBox="0 0 6 9" fill="none" xmlns="http://www.w3.org/2000/svg">
<path fill-rule="evenodd" clip-rule="evenodd" d="M3.28794 1.56697C3.20385 1.66042 3.07923 1.70715 2.91406 1.70715C2.74589 1.70715 2.62052 1.66042 2.53794 1.56697C2.45535 1.47351 2.41406 1.35669 2.41406 1.2165C2.41406 1.14173 2.42532 1.07164 2.44785 1.00622C2.47037 0.940798 2.50565 0.884723 2.5537 0.837994C2.59274 0.797496 2.64304 0.765565 2.7046 0.7422C2.76616 0.718836 2.83598 0.707153 2.91406 0.707153C2.99214 0.707153 3.06121 0.718836 3.12127 0.7422C3.18133 0.765565 3.23088 0.797496 3.26992 0.837994C3.31797 0.881608 3.354 0.936125 3.37803 1.00155C3.40205 1.06697 3.41406 1.13862 3.41406 1.2165C3.41406 1.35669 3.37202 1.47351 3.28794 1.56697ZM5.41406 7.81991V8.70715H0.414062V7.81991H2.44497V3.59994H0.414062V2.70715H3.46594V7.81991H5.41406Z" fill="#fff"/>
</svg>
