<svg width="36" height="36" viewBox="0 0 36 36" fill="none" xmlns="http://www.w3.org/2000/svg">
<rect x="17.6777" width="25" height="25" rx="5" transform="rotate(45 17.6777 0)" fill="#8F8F90"/>
<path fill-rule="evenodd" clip-rule="evenodd" d="M18.2879 13.567C18.2039 13.6604 18.0792 13.7072 17.9141 13.7072C17.7459 13.7072 17.6205 13.6604 17.5379 13.567C17.4554 13.4735 17.4141 13.3567 17.4141 13.2165C17.4141 13.1417 17.4253 13.0716 17.4478 13.0062C17.4704 12.9408 17.5057 12.8847 17.5537 12.838C17.5927 12.7975 17.643 12.7656 17.7046 12.7422C17.7662 12.7188 17.836 12.7072 17.9141 12.7072C17.9921 12.7072 18.0612 12.7188 18.1213 12.7422C18.1813 12.7656 18.2309 12.7975 18.2699 12.838C18.318 12.8816 18.354 12.9361 18.378 13.0015C18.4021 13.067 18.4141 13.1386 18.4141 13.2165C18.4141 13.3567 18.372 13.4735 18.2879 13.567ZM20.4141 19.8199V20.7072H15.4141V19.8199H17.445V15.5999H15.4141V14.7072H18.4659V19.8199H20.4141Z" fill="white"/>
</svg>
