<svg width="25" height="25" viewBox="0 0 25 25" fill="none" xmlns="http://www.w3.org/2000/svg">
<g opacity="0.3">
<path fill-rule="evenodd" clip-rule="evenodd" d="M11.4585 2.08331C16.6335 2.08331 20.8335 6.28331 20.8335 11.4583C20.8335 16.6333 16.6335 20.8333 11.4585 20.8333C6.2835 20.8333 2.0835 16.6333 2.0835 11.4583C2.0835 6.28331 6.2835 2.08331 11.4585 2.08331ZM11.4585 18.75C15.4866 18.75 18.7502 15.4864 18.7502 11.4583C18.7502 7.42915 15.4866 4.16665 11.4585 4.16665C7.42933 4.16665 4.16683 7.42915 4.16683 11.4583C4.16683 15.4864 7.42933 18.75 11.4585 18.75ZM23.2439 21.7698L20.297 18.8239L18.8241 20.2969L21.77 23.2437L23.2439 21.7698Z" fill="white"/>
</g>
</svg>
