<svg width="24" height="24" viewBox="0 0 24 24" fill="none" xmlns="http://www.w3.org/2000/svg">
<path fill-rule="evenodd" clip-rule="evenodd" d="M24 4.8H18V1.2C18 0.537258 17.4627 0 16.8 0H7.2C6.53726 0 6 0.537258 6 1.2V4.8H0V7.2H2.4V22.8C2.4 23.4627 2.93726 24 3.6 24H20.4C21.0627 24 21.6 23.4627 21.6 22.8V7.2H24V4.8ZM4.8 7.2H19.2V21.6H4.8V7.2ZM13.6968 14.4L15.8184 16.5216L14.1216 18.2184L12 16.0968L9.8784 18.2184L8.1816 16.5216L10.3032 14.4L8.1816 12.2784L9.8784 10.5816L12 12.7032L14.1216 10.5816L15.8184 12.2784L13.6968 14.4ZM8.4 4.8V2.4H15.6V4.8H8.4Z" fill="#14EDFE"/>
</svg>
